<svg xmlns="http://www.w3.org/2000/svg" xml:space="preserve" style="fill-rule:evenodd;clip-rule:evenodd;stroke-linejoin:round;stroke-miterlimit:2" viewBox="0 0 50 49"><path d="M512 482.364c61.77-124.902 141.228-235.153 238.375-330.753 32.998-30.887 70.521-53.367 112.566-67.442 58.051-16.426 91.38 7.25 99.985 71.029a2636.138 2636.138 0 0 1-22.513 307.077c-20.92 81.013-69.698 129.083-146.336 144.212a453.497 453.497 0 0 1-78.134 5.74c35.748 8.133 68.856 22.961 99.323 44.483 55.491 46.249 64.983 101.974 28.473 167.17-26.998 41.216-60.326 74.937-99.985 101.163-59.508 34.36-111.377 24.077-155.606-30.851-20.795-27.815-37.57-58.426-50.324-91.836A7281.74 7281.74 0 0 1 512 729.174a7281.74 7281.74 0 0 1-25.824 73.182c-12.754 33.41-29.529 64.021-50.324 91.836-44.229 54.928-96.098 65.211-155.606 30.851-39.659-26.226-72.987-59.947-99.985-101.163-36.51-65.196-27.018-120.921 28.473-167.17 30.467-21.522 63.575-36.35 99.323-44.483a453.497 453.497 0 0 1-78.134-5.74c-76.638-15.129-125.416-63.199-146.336-144.212a2636.138 2636.138 0 0 1-22.513-307.077c8.605-63.779 41.934-87.455 99.985-71.029 42.045 14.075 79.568 36.555 112.566 67.442C370.772 247.211 450.23 357.462 512 482.364Z" style="fill-rule:nonzero" transform="matrix(.05544 0 0 .0558 -3.386 -4.416)"/></svg>