<svg xmlns="http://www.w3.org/2000/svg" xml:space="preserve" style="fill-rule:evenodd;clip-rule:evenodd;stroke-linejoin:round;stroke-miterlimit:2" viewBox="0 0 50 53"><path d="M24.974 43.741s-15.63 0-19.496-1.034a6.419 6.419 0 0 1-4.445-4.362C0 34.517 0 26.465 0 26.465s0-8 1.033-11.793a6.293 6.293 0 0 1 4.445-4.362C9.345 9.26 24.974 9.26 24.974 9.26s15.664 0 19.548 1.051a6.127 6.127 0 0 1 4.41 4.362C50 18.466 50 26.466 50 26.466s0 8.051-1.067 11.879a6.245 6.245 0 0 1-4.41 4.362c-3.885 1.034-19.549 1.034-19.549 1.034ZM32.76 26.5l-12.931-7.328v14.656l12.93-7.328Z"/></svg>