<svg xmlns="http://www.w3.org/2000/svg" viewBox="0 0 50 50"><path d="M38.3 8.8c-1.6 0-2.9 1.3-2.9 2.9 0 1.6 1.3 2.9 2.9 2.9 1.6 0 2.9-1.3 2.9-2.9.1-1.6-1.3-2.9-2.9-2.9zM25 33.1c-4.6 0-8.3-3.7-8.3-8.3s3.7-8.3 8.3-8.3c4.6 0 8.3 3.7 8.3 8.3s-3.8 8.3-8.3 8.3zM25 12c-7.1 0-12.9 5.8-12.9 12.9S17.9 37.7 25 37.7c7.1 0 12.9-5.8 12.9-12.9S32.1 12 25 12zm20.4 23.4c0 3.1-.9 5.6-2.7 7.4-1.8 1.7-4.3 2.6-7.4 2.6H14.7c-3 0-5.5-.9-7.3-2.7-1.8-1.8-2.8-4.4-2.8-7.5V14.6c0-3.1.9-5.6 2.7-7.3 1.8-1.7 4.3-2.7 7.3-2.7h20.8c3 0 5.5.9 7.3 2.7 1.8 1.8 2.7 4.3 2.7 7.3v20.8zM46 4.1C43.3 1.4 39.6 0 35.4 0H14.6C5.9 0 0 5.9 0 14.6v20.6c0 4.4 1.5 8.1 4.2 10.8 2.7 2.6 6.3 4 10.5 4h20.5c4.3 0 8-1.4 10.6-4 2.7-2.6 4.1-6.3 4.1-10.7V14.6c.1-4.2-1.3-7.9-3.9-10.5z" fill-rule="evenodd" clip-rule="evenodd" fill="#2f271a"/></svg>