<svg version="1.1" id="Layer_1" xmlns="http://www.w3.org/2000/svg" x="0" y="0" viewBox="0 0 65 50" xml:space="preserve"><style>.st0{fill-rule:evenodd;clip-rule:evenodd;fill:#2f271a}</style><path class="st0" d="M55 6.9L33.9 26.2c-.9.8-2.4.8-3.3 0L9.5 6.8c-.8-.6-2-.5-2.7.3-.7.8-.6 2 .2 2.7l21.1 19.4c2.3 2.1 5.9 2.1 8.2 0L57.4 9.8c.8-.7.8-1.9.2-2.7-.7-.8-1.9-.9-2.6-.2zM40.9 31.2l14.2 12c.8.7 2 .5 2.6-.3.6-.8.5-2-.3-2.7l-14.2-12c-.8-.7-2-.5-2.6.3-.6.8-.5 2 .3 2.7zm-19.7-3L7 40.2c-.8.7-.9 1.9-.3 2.7.6.8 1.8.9 2.6.3l14.2-12c.8-.7.9-1.9.3-2.7-.6-.9-1.8-1-2.6-.3z"/><path class="st0" d="M3.7 8.1c0-2.4 1.9-4.3 4.4-4.3h48.8c2.5 0 4.4 1.9 4.4 4.3v33.7c0 2.4-2 4.3-4.4 4.3H8.1c-2.5 0-4.4-1.9-4.4-4.3V8.1zM0 8.1v33.7C0 46.3 3.5 50 8.1 50h48.8c4.6 0 8.1-3.7 8.1-8.1V8.1C65 3.7 61.5 0 56.9 0H8.1C3.5 0 0 3.7 0 8.1z"/></svg>