<svg viewBox="0 0 512 512" xmlns="http://www.w3.org/2000/svg" xml:space="preserve" style="fill-rule:evenodd;clip-rule:evenodd;stroke-linejoin:round;stroke-miterlimit:2"><circle cx="28.1" cy="30" r="4.4" style="fill:#fff" transform="matrix(10.3657 0 0 10.3659 -37.353 -52.902)"/><path d="M33.6 19.2h-11c-1.6 0-3 .5-3.9 1.4-.9.9-1.4 2.3-1.4 3.9v11c0 1.6.5 3 1.5 4 1 .9 2.3 1.4 3.9 1.4h10.9c1.6 0 3-.5 3.9-1.4 1-.9 1.5-2.3 1.5-3.9v-11c0-1.6-.5-2.9-1.4-3.9-1-1-2.3-1.5-4-1.5Zm-5.5 17.6c-3.8 0-6.8-3.1-6.8-6.8 0-3.8 3.1-6.8 6.8-6.8 3.7 0 6.9 3 6.9 6.8s-3.1 6.8-6.9 6.8Zm7.1-12.3c-.9 0-1.6-.7-1.6-1.6 0-.9.7-1.6 1.6-1.6.9 0 1.6.7 1.6 1.6 0 .9-.7 1.6-1.6 1.6Z" style="fill:#fff;fill-rule:nonzero" transform="matrix(10.3657 0 0 10.3659 -37.353 -52.902)"/><path d="M28.3 5.2c-13.6 0-24.6 11-24.6 24.6 0 13.6 11 24.6 24.6 24.6 13.6 0 24.6-11 24.6-24.6.1-13.6-11-24.6-24.6-24.6Zm13.1 30.4c0 2.3-.8 4.3-2.2 5.7-1.4 1.4-3.4 2.1-5.6 2.1H22.7c-2.2 0-4.2-.7-5.6-2.1-1.5-1.4-2.2-3.4-2.2-5.7v-11c0-4.6 3.1-7.8 7.8-7.8h11c2.3 0 4.2.8 5.6 2.2 1.4 1.4 2.1 3.3 2.1 5.6v11Z" style="fill:#fff;fill-rule:nonzero" transform="matrix(10.3657 0 0 10.3659 -37.353 -52.902)"/></svg>