<svg xmlns="http://www.w3.org/2000/svg" xml:space="preserve" style="fill-rule:evenodd;clip-rule:evenodd;stroke-linejoin:round;stroke-miterlimit:2" viewBox="0 0 511 512"><path d="M255.1 1c141.1 0 256.8 115.3 255 255.9 0 140.6-113.9 254.1-255 254.1S.1 397.5.1 256.9 114 1 255.1 1Zm56.192 204.045c19.515 15.644 44.287 25.002 71.245 25.002V187.3c-39.347 0-71.245-31.897-71.245-71.244h-42.747v192.36c0 27.543-22.328 49.871-49.871 49.871-27.543 0-49.871-22.328-49.871-49.871 0-27.543 22.328-49.871 49.871-49.871a49.67 49.67 0 0 1 21.374 4.799v-45.068a92.918 92.918 0 0 0-21.374-2.478c-51.151 0-92.618 41.466-92.618 92.618 0 51.152 41.467 92.618 92.618 92.618 51.152 0 92.618-41.466 92.618-92.618V205.045Z" style="fill:#fff"/></svg>