<svg xmlns="http://www.w3.org/2000/svg" viewBox="0 0 510.2 512"><path d="M226.2 215.5v79.3l66.9-34.2 9-5.4-70.5-37.8c0-.1-5.4-1.9-5.4-1.9zM255.1 1C114 1 .1 116.3.1 256.9S114 511 255.1 511s255-113.5 255-254.1C511.9 116.3 396.2 1 255.1 1zm141.1 310c-1.8 23.4-16.3 39.6-41.6 41.4 0 0-56.1 3.6-97.7 3.6s-97.7-3.6-97.7-3.6c-25.3-1.8-39.8-18-41.6-41.4 0 0-3.6-30.6-3.6-55.9s3.6-55.9 3.6-55.9c3.6-23.4 18.1-39.6 41.6-41.4 0 0 70.5-1.8 97.7-1.8s97.7 1.8 97.7 1.8c23.5 1.8 38 18 41.6 41.4 0 0 3.6 30.6 3.6 55.9-1.8 25.2-3.6 55.9-3.6 55.9z" fill="#fff"/></svg>